:version 1.10
:name ASF
:units
  mass 1
  length 1
  angle deg
:documentation
  ASF file generated by Kaydara
:root
  axis xyz
  order  tx ty tz rx ry rz
  position 0 0 0
  orientation 0 0 0
:bonedata
  begin
    id 1
    name RightUpLegDummy
    direction -0.718183 -0.695806 0.00816078
    length 4.904
    axis 0 0 0 xyz
  end
  begin
    id 2
    name RightUpLeg
    direction 3.53373e-006 -0.995788 0.0916898
    length 17.4976
    axis -3.49089 -0.000906625 0.000286804 xyz
    dof rx ry rz
  end
  begin
    id 3
    name RightLeg
    direction 0.00371092 -0.995096 -0.0988419
    length 16.5821
    axis 3.68512 0.0193738 -0.131023 xyz
    dof rx ry rz
  end
  begin
    id 4
    name RightFoot
    direction 0.00079151 -0.46099 0.887405
    length 3.77069
    axis 4.81691e-005 -0.120479 -0.188788 xyz
    dof rx ry rz
  end
  begin
    id 5
    name RightToes
    direction 0 0 0
    length 0
    axis 0 0 0 xyz
    dof rx ry rz
  end
  begin
    id 6
    name SpineDummy
    direction 8.3039e-015 1 4.57515e-016
    length 4.6813
    axis 0 0 0 xyz
  end
  begin
    id 7
    name Spine
    direction -3.15643e-008 0.999988 0.00495137
    length 10.1015
    axis -0.001389 0.000121418 2.40972e-006 xyz
    dof rx ry rz
  end
  begin
    id 8
    name Spine1
    direction 0 0 0
    length 0
    axis -0.001389 0.000121451 1.30017e-006 xyz
    dof rx ry rz
  end
  begin
    id 9
    name HEadDummy
    direction -1.99912e-008 0.999999 0.00127422
    length 3.43865
    axis -0.001389 0.000121451 1.30017e-006 xyz
  end
  begin
    id 10
    name HEad
    direction 0 0 0
    length 0
    axis 0 0 0 xyz
    dof rx ry rz
  end
  begin
    id 11
    name LeftShoulder1Dummy
    direction 0.998891 -0.0402509 -0.0244456
    length 3.5433
    axis -0.001389 0.000121451 1.30017e-006 xyz
  end
  begin
    id 12
    name LeftShoulder1
    direction 0.99951 -0.000327763 0.0313091
    length 4.05031
    axis -0.001389 0.000121451 1.30017e-006 xyz
    dof rx ry rz
  end
  begin
    id 13
    name LeftArm
    direction 0.998561 -0.00100056 -0.0536182
    length 10.3537
    axis -23.1894 0.134784 0.967509 xyz
    dof rx ry rz
  end
  begin
    id 14
    name LeftForeArm
    direction 0.998903 0.00866432 0.046012
    length 8.70632
    axis -9.91835 -0.06569 -0.177794 xyz
    dof rx ry rz
  end
  begin
    id 15
    name LeftHand
    direction 0 0 0
    length 0
    axis 0 0 0 xyz
    dof rx ry rz
  end
  begin
    id 16
    name RightShoulderDummy
    direction -0.998891 -0.0402509 -0.0244414
    length 3.5433
    axis -0.001389 0.000121451 1.30017e-006 xyz
  end
  begin
    id 17
    name RightShoulder
    direction -0.99951 -0.000327807 0.0313133
    length 4.05031
    axis 0.215806 0.000203643 -0.0068026 xyz
    dof rx ry rz
  end
  begin
    id 18
    name RightArm
    direction -0.998573 -0.000999564 -0.053403
    length 10.3947
    axis -23.2009 -0.134239 -0.964101 xyz
    dof rx ry rz
  end
  begin
    id 19
    name RightForeArm
    direction -0.998898 0.00868028 0.0461306
    length 8.68355
    axis -9.92322 0.0658061 0.178868 xyz
    dof rx ry rz
  end
  begin
    id 20
    name RightHand
    direction 0 0 0
    length 0
    axis 0 0 0 xyz
    dof rx ry rz
  end
  begin
    id 21
    name LeftUpLegDummy
    direction 0.718183 -0.695806 0.00816078
    length 4.904
    axis 0 0 0 xyz
  end
  begin
    id 22
    name LeftUpLeg
    direction -6.81752e-006 -0.995793 0.0916337
    length 17.4976
    axis -3.48766 0.00143442 -0.000524262 xyz
    dof rx ry rz
  end
  begin
    id 23
    name LeftLeg
    direction -0.00601358 -0.995091 -0.0987824
    length 16.5821
    axis 3.68178 -0.00654042 -0.000285133 xyz
    dof rx ry rz
  end
  begin
    id 24
    name LeftFoot
    direction -0.00417578 -0.460984 0.887399
    length 3.77069
    axis 1.87233e-006 4.66016e-005 -8.6538e-006 xyz
    dof rx ry rz
  end
  begin
    id 25
    name LeftToes
    direction 0 0 0
    length 0
    axis 0 0 0 xyz
    dof rx ry rz
  end
:hierarchy
  begin
    root RightUpLegDummy SpineDummy LeftUpLegDummy
    RightUpLegDummy RightUpLeg
    RightUpLeg RightLeg
    RightLeg RightFoot
    RightFoot RightToes
    SpineDummy Spine
    Spine Spine1
    Spine1 HEadDummy LeftShoulder1Dummy RightShoulderDummy
    HEadDummy HEad
    LeftShoulder1Dummy LeftShoulder1
    LeftShoulder1 LeftArm
    LeftArm LeftForeArm
    LeftForeArm LeftHand
    RightShoulderDummy RightShoulder
    RightShoulder RightArm
    RightArm RightForeArm
    RightForeArm RightHand
    LeftUpLegDummy LeftUpLeg
    LeftUpLeg LeftLeg
    LeftLeg LeftFoot
    LeftFoot LeftToes
  end

:SAMPLES-PER-SECOND 30
:FULLY-SPECIFIED
:DEGREES
17
root  72.8116 40.3879 -0.107568 -36.8738 -88.5004 34.7956
RightUpLeg  2.9343 -8.55958 -6.30008
RightLeg  5.51884 -3.52273 3.16283
RightFoot  -4.49272 -0.0600902 0.413451
RightToes  0.000481922 0.542163 -0.142578
Spine  -0.952375 0.152967 -0.804911
Spine1  5.18797 0.219408 0.126441
HEad  1.41738 1.64959 1.13971
LeftShoulder1  1.19781 -3.25402 -10.399
LeftArm  -14.5731 5.89886 -1.43605
LeftForeArm  30.142 -2.11204 -2.59335
LeftHand  -0.25398 0.0180481 5.50724
RightShoulder  0.543328 0.837879 4.6535
RightArm  -20.3481 -2.58684 2.10105
RightForeArm  9.67211 3.82534 2.71022
RightHand  -1.13876 4.67957 -13.4297
LeftUpLeg  4.26038 4.4809 2.22104
LeftLeg  3.34002 9.97765 -2.867
LeftFoot  -4.85901 0.00579518 0.240139
LeftToes  1.06245e-005 4.65869e-005 -8.65513e-006
18
root  72.8077 40.3854 -0.119935 -37.4483 -88.5018 35.3648
RightUpLeg  2.90948 -8.56399 -6.29373
RightLeg  5.59626 -3.51378 3.16247
RightFoot  -4.55571 -0.0558703 0.347945
RightToes  0.000481922 0.542163 -0.142578
Spine  -0.787418 0.159631 -0.918076
Spine1  5.02403 0.18989 0.29245
HEad  1.62206 1.77281 0.891659
LeftShoulder1  1.21127 -3.2653 -10.5868
LeftArm  -14.5026 5.91873 -1.28718
LeftForeArm  30.2275 -2.15951 -2.61881
LeftHand  -0.25398 0.0180481 5.50724
RightShoulder  0.523793 0.738705 4.46478
RightArm  -20.4745 -2.5286 2.20667
RightForeArm  10.0795 3.72406 2.63845
RightHand  -1.1456 4.8046 -13.352
LeftUpLeg  4.25839 4.47737 2.22524
LeftLeg  3.37265 9.99859 -2.84901
LeftFoot  -4.87345 0.00823651 0.202198
LeftToes  1.06245e-005 4.65869e-005 -8.65513e-006
19
root  72.8027 40.3822 -0.12821 -37.8981 -88.4979 35.8038
RightUpLeg  2.89721 -8.57657 -6.30123
RightLeg  5.66822 -3.48578 3.16863
RightFoot  -4.62443 -0.0562754 0.354235
RightToes  0.000481922 0.542163 -0.142578
Spine  -0.7548 0.121065 -0.881302
Spine1  5.07122 0.153974 0.267496
HEad  1.66599 1.71385 0.748998
LeftShoulder1  1.22994 -3.31444 -10.7478
LeftArm  -14.4969 6.04839 -1.07617
LeftForeArm  30.0515 -2.32617 -2.62457
LeftHand  -0.25398 0.0180481 5.50724
RightShoulder  0.513035 0.698958 4.30794
RightArm  -20.7496 -2.44028 2.33246
RightForeArm  10.566 3.5284 2.51314
RightHand  -1.20996 5.3442 -13.4087
LeftUpLeg  4.2652 4.49183 2.23657
LeftLeg  3.4077 9.99001 -2.85562
LeftFoot  -4.89643 0.00834628 0.200492
LeftToes  1.06245e-005 4.65869e-005 -8.65513e-006
20
root  72.799 40.3777 -0.130531 -37.9875 -88.5403 35.9211
RightUpLeg  2.84504 -8.60304 -6.30488
RightLeg  5.7229 -3.40593 3.22192
RightFoot  -4.66094 -0.0615519 0.43614
RightToes  0.000481922 0.542163 -0.142578
Spine  -0.803345 0.0786125 -0.758156
Spine1  5.20142 0.106778 0.250853
HEad  1.53542 1.53117 0.63545
LeftShoulder1  1.25819 -3.3632 -11.0616
LeftArm  -14.4198 6.21857 -0.771454
LeftForeArm  29.7331 -2.56197 -2.66479
LeftHand  -0.25398 0.0180481 5.50724
RightShoulder  0.507731 0.71863 4.10032
RightArm  -21.0206 -2.39795 2.4122
RightForeArm  10.8234 3.40459 2.40798
RightHand  -1.26239 5.74498 -13.4942
LeftUpLeg  4.19448 4.54213 2.28613
LeftLeg  3.52397 9.96629 -2.8703
LeftFoot  -4.97329 0.00867824 0.195334
LeftToes  1.06245e-005 4.65869e-005 -8.65513e-006
21
root  72.7978 40.3728 -0.130513 -38.1003 -88.6198 36.1091
RightUpLeg  2.75395 -8.63805 -6.29385
RightLeg  5.74363 -3.30119 3.30689
RightFoot  -4.69471 -0.0664268 0.51181
RightToes  0.000481922 0.542163 -0.142578
Spine  -0.624172 0.127799 -0.604085
Spine1  4.92474 0.150207 0.235778
HEad  1.45954 1.17438 0.503452
LeftShoulder1  1.27822 -3.41609 -11.228
LeftArm  -14.4209 6.27723 -0.785115
LeftForeArm  29.6389 -2.67812 -2.67425
LeftHand  -0.25398 0.0180481 5.50724
RightShoulder  0.500292 0.611474 4.25473
RightArm  -21.1101 -2.398 2.17069
RightForeArm  10.3275 3.58241 2.4247
RightHand  -1.22949 5.27607 -13.7064
LeftUpLeg  4.05559 4.62052 2.36344
LeftLeg  3.67431 9.94577 -2.89664
LeftFoot  -5.06334 0.0109849 0.159487
LeftToes  1.06245e-005 4.65869e-005 -8.65513e-006
22
root  72.7991 40.3671 -0.135804 -40.8079 -88.7212 38.9468
RightUpLeg  2.56978 -8.64037 -6.26768
RightLeg  5.81606 -3.19584 3.33865
RightFoot  -4.82106 -0.0680571 0.537115
RightToes  0.000481922 0.542163 -0.142578
Spine  -0.341226 0.235197 -0.338814
Spine1  4.42767 0.31367 -0.0529239
HEad  1.47627 0.959516 0.470928
LeftShoulder1  1.26302 -3.40891 -11.0054
LeftArm  -14.9603 6.18526 -1.45386
LeftForeArm  29.444 -2.62417 -2.48805
LeftHand  -0.25398 0.0180481 5.50724
RightShoulder  0.514834 0.472531 5.14052
RightArm  -21.1233 -2.46301 1.64759
RightForeArm  8.88382 4.08205 2.5632
RightHand  -1.2394 4.77671 -14.4387
LeftUpLeg  3.89131 4.71465 2.42891
LeftLeg  3.76426 9.96897 -2.9666
LeftFoot  -5.12817 0.0131772 0.125416
LeftToes  1.06245e-005 4.65869e-005 -8.65513e-006
